<svg width="264" height="264" viewBox="0 0 264 264" fill="none" xmlns="http://www.w3.org/2000/svg">
<g filter="url(#filter0_d)">
<g filter="url(#filter1_d)">
<circle cx="132" cy="128" r="128" fill="#B4F157"/>
</g>
<path d="M45.2734 124.691L43.4102 125.289L45.2734 125.922L66.7891 134.219V141.109L36.9766 127.785V122.652L66.7891 109.363V116.254L45.2734 124.691ZM84.7539 109.961H103.949V148.246C103.949 150.684 103.609 152.84 102.93 154.715C102.273 156.59 101.301 158.16 100.012 159.426C98.7461 160.715 97.1875 161.688 95.3359 162.344C93.5078 163.023 91.4219 163.363 89.0781 163.363C87.7422 163.363 86.4883 163.316 85.3164 163.223C84.168 163.152 82.9492 163 81.6602 162.766L82.1172 157.422C82.5156 157.492 83.0195 157.551 83.6289 157.598C84.2383 157.668 84.8477 157.715 85.457 157.738C86.0898 157.785 86.6875 157.809 87.25 157.809C87.8359 157.832 88.293 157.844 88.6211 157.844C89.8398 157.844 90.9883 157.68 92.0664 157.352C93.1445 157.047 94.082 156.52 94.8789 155.77C95.6758 155.02 96.2969 154.023 96.7422 152.781C97.2109 151.562 97.4453 150.051 97.4453 148.246V115.621H84.7539V109.961ZM96.5312 99.9414C96.5312 98.8867 96.8477 97.9961 97.4805 97.2695C98.1133 96.5195 99.0859 96.1445 100.398 96.1445C101.711 96.1445 102.695 96.5195 103.352 97.2695C104.008 97.9961 104.336 98.8867 104.336 99.9414C104.336 100.996 104.008 101.887 103.352 102.613C102.695 103.316 101.711 103.668 100.398 103.668C99.0859 103.668 98.1133 103.316 97.4805 102.613C96.8477 101.887 96.5312 100.996 96.5312 99.9414ZM139 100.75V109.961H153.484V114.988H139V135.66C139 137.137 139.188 138.355 139.562 139.316C139.938 140.277 140.453 141.051 141.109 141.637C141.766 142.199 142.516 142.598 143.359 142.832C144.227 143.066 145.141 143.184 146.102 143.184C146.805 143.184 147.531 143.148 148.281 143.078C149.031 142.984 149.758 142.879 150.461 142.762C151.188 142.645 151.855 142.527 152.465 142.41C153.098 142.27 153.613 142.152 154.012 142.059L154.926 146.664C154.387 146.992 153.73 147.285 152.957 147.543C152.184 147.777 151.34 147.977 150.426 148.141C149.512 148.328 148.539 148.469 147.508 148.562C146.5 148.656 145.492 148.703 144.484 148.703C142.797 148.703 141.215 148.469 139.738 148C138.285 147.508 137.02 146.746 135.941 145.715C134.863 144.66 134.008 143.312 133.375 141.672C132.766 140.008 132.461 138.004 132.461 135.66V114.988H122.477V109.961H132.461V100.75H139ZM175.422 152.395H169.586L190.961 96.8125H196.762L175.422 152.395ZM210.227 116.043V109.328L241.27 122.617V127.75L210.227 141.074V134.324L232.973 125.746L235.082 125.148L232.973 124.48L210.227 116.043Z" fill="#212121"/>
</g>
<defs>
<filter id="filter0_d" x="0" y="0" width="264" height="264" filterUnits="userSpaceOnUse" color-interpolation-filters="sRGB">
<feFlood flood-opacity="0" result="BackgroundImageFix"/>
<feColorMatrix in="SourceAlpha" type="matrix" values="0 0 0 0 0 0 0 0 0 0 0 0 0 0 0 0 0 0 127 0"/>
<feOffset dy="4"/>
<feGaussianBlur stdDeviation="2"/>
<feColorMatrix type="matrix" values="0 0 0 0 0 0 0 0 0 0 0 0 0 0 0 0 0 0 0.25 0"/>
<feBlend mode="normal" in2="BackgroundImageFix" result="effect1_dropShadow"/>
<feBlend mode="normal" in="SourceGraphic" in2="effect1_dropShadow" result="shape"/>
</filter>
<filter id="filter1_d" x="0" y="0" width="264" height="264" filterUnits="userSpaceOnUse" color-interpolation-filters="sRGB">
<feFlood flood-opacity="0" result="BackgroundImageFix"/>
<feColorMatrix in="SourceAlpha" type="matrix" values="0 0 0 0 0 0 0 0 0 0 0 0 0 0 0 0 0 0 127 0"/>
<feOffset dy="4"/>
<feGaussianBlur stdDeviation="2"/>
<feColorMatrix type="matrix" values="0 0 0 0 0 0 0 0 0 0 0 0 0 0 0 0 0 0 0.25 0"/>
<feBlend mode="normal" in2="BackgroundImageFix" result="effect1_dropShadow"/>
<feBlend mode="normal" in="SourceGraphic" in2="effect1_dropShadow" result="shape"/>
</filter>
</defs>
</svg>
